<?xml version="1.0" encoding="utf-8"?>
<!-- Generator: Adobe Illustrator 16.0.0, SVG Export Plug-In . SVG Version: 6.00 Build 0)  -->
<!DOCTYPE svg PUBLIC "-//W3C//DTD SVG 1.1//EN" "http://www.w3.org/Graphics/SVG/1.1/DTD/svg11.dtd">
<svg version="1.1" id="Layer_1" xmlns="http://www.w3.org/2000/svg" xmlns:xlink="http://www.w3.org/1999/xlink" x="0px" y="0px"
	 width="512px" height="410px" viewBox="0 0 512 410" enable-background="new 0 0 512 410" xml:space="preserve">
<g>
	<g>
		<path fill-rule="evenodd" clip-rule="evenodd" fill="#010101" d="M262.35,33.603c-0.015,14.903-11.514,26.357-26.483,26.37
			c-14.808,0.011-26.336-11.775-26.322-26.923c0.014-14.781,11.803-26.511,26.604-26.609
			C249.623,6.351,262.667,17.997,262.35,33.603z M252.662,33.5c0.007-11.518-9.936-19.738-20.759-17.053
			c-13.524,3.359-15.59,19.335-9.21,27.638c4.366,5.662,12.002,7.943,18.791,5.65C248.156,47.481,252.647,40.952,252.662,33.5z"/>
		<path fill-rule="evenodd" clip-rule="evenodd" fill="#010101" d="M396.44,33.811c3.134,1.1,6.106,2.138,9.236,3.229
			c-5.57,16.048-11.126,32.028-16.731,48.152c-3.068-1.068-6.07-2.111-9.237-3.21c2.429-7.019,4.845-13.979,7.326-21.118
			c-5.324-1.86-10.584-3.698-16.063-5.609c-2.447,7.021-4.886,14.014-7.354,21.104c-3.088-1.073-6.092-2.121-9.272-3.228
			c5.578-16.059,11.135-32.072,16.726-48.165c3.138,1.093,6.148,2.14,9.294,3.235c-2.102,6.042-4.183,12.019-6.311,18.162
			c5.365,1.874,10.66,3.73,16.052,5.615C392.23,45.909,394.311,39.922,396.44,33.811z"/>
		<path fill-rule="evenodd" clip-rule="evenodd" fill="#010101" d="M347.668,70.956c-3.216-0.619-6.177-1.149-9.117-1.791
			c-0.374-0.084-0.825-0.709-0.917-1.144c-0.624-3.286-1.163-6.591-1.763-10.016c-3.392-0.669-6.79-1.347-10.203-2.015
			c-2.912-0.573-5.838-1.083-8.735-1.724c-1.107-0.244-1.679,0.058-2.257,1.015c-1.678,2.778-3.462,5.489-5.231,8.274
			c-3.275-0.636-6.494-1.265-9.872-1.925c2.404-3.855,4.725-7.561,7.037-11.27c7.016-11.234,14.038-22.458,21.013-33.715
			c0.606-0.968,1.135-1.333,2.333-1.045c2.659,0.639,5.359,1.063,8.159,1.593C341.287,35.041,344.46,52.888,347.668,70.956z
			 M320.831,45.431c4.439,0.863,8.758,1.696,13.271,2.572c-1.1-6.175-2.172-12.131-3.307-18.449
			C327.354,35.047,324.132,40.18,320.831,45.431z"/>
		<path fill-rule="evenodd" clip-rule="evenodd" fill="#010101" d="M181.488,35.166c7.996,8.146,15.919,16.22,24.016,24.461
			c-3.406,0.592-6.621,1.077-9.78,1.738c-1.184,0.249-1.882-0.071-2.679-0.896c-5.605-5.749-11.247-11.442-16.887-17.152
			c-0.317-0.326-0.656-0.631-1.255-1.204c1.31,7.572,2.567,14.79,3.843,22.167c-3.201,0.564-6.332,1.114-9.646,1.696
			c-2.891-16.722-5.774-33.372-8.687-50.194c3.187-0.562,6.318-1.116,9.618-1.696c0.994,5.676,1.965,11.268,3.009,17.224
			c0.403-0.749,0.643-1.181,0.883-1.615c3.037-5.637,6.071-11.28,9.138-16.897c0.268-0.478,0.762-1.063,1.234-1.155
			c3.512-0.687,7.037-1.26,10.803-1.914C190.506,18.307,186.028,26.68,181.488,35.166z"/>
		<path fill-rule="evenodd" clip-rule="evenodd" fill="#010101" d="M121.031,25.17c9.019-2.295,17.896-4.557,26.928-6.855
			c0.783,3.074,1.538,6.069,2.327,9.201c-5.859,1.495-11.634,2.969-17.578,4.486c0.747,2.963,1.48,5.869,2.242,8.923
			c5.866-1.486,11.684-2.956,17.606-4.453c0.754,3.003,1.509,5.909,2.29,9.01c-5.873,1.503-11.675,2.993-17.59,4.507
			c1.114,4.397,2.193,8.667,3.291,12.984c5.911-1.499,11.7-2.968,17.606-4.467c0.777,3.071,1.539,6.067,2.336,9.235
			c-8.977,2.285-17.882,4.555-26.928,6.854C129.38,58.099,125.218,41.69,121.031,25.17z"/>
		<path fill-rule="evenodd" clip-rule="evenodd" fill="#010101" d="M109.841,36.194c-1.565,2.727-3.088,5.38-4.52,7.87
			c-2.094-0.831-4.062-1.915-6.163-2.324c-1.339-0.261-3.046,0.151-4.272,0.836c-2.56,1.433-2.489,4.451,0.049,5.912
			c1.784,1.027,3.716,1.824,5.62,2.628c3.469,1.463,7.001,2.768,10.442,4.289c4.548,2.013,8.18,4.96,9.717,9.99
			c1.875,6.168-0.233,12.391-5.556,16.029c-7.792,5.327-17.261,4.164-23.699-2.979c1.989-2.355,3.984-4.721,5.973-7.071
			c1.438,0.973,2.757,2.026,4.216,2.828c2.354,1.295,4.823,1.544,7.284,0.175c3.798-2.114,4.087-6.537,0.366-8.74
			c-2.616-1.544-5.563-2.511-8.341-3.776c-3.462-1.573-7.023-2.99-10.338-4.835c-4.243-2.355-6.917-5.976-7.05-11.022
			c-0.162-6.54,5.211-12.507,12.1-13.572C100.357,31.703,105.731,33.116,109.841,36.194z"/>
		<path fill-rule="evenodd" clip-rule="evenodd" fill="#010101" d="M277.051,8.242c3.265,0.29,6.367,0.561,9.653,0.852
			c-1.234,13.836-2.468,27.577-3.717,41.545c4.655,0.42,9.279,0.841,14.047,1.273c-0.269,3.06-0.529,6.039-0.818,9.21
			c-7.883-0.704-15.703-1.405-23.691-2.119C274.033,42.096,275.528,25.261,277.051,8.242z"/>
	</g>
	<path fill-rule="evenodd" clip-rule="evenodd" fill="#117EBE" d="M343.338,369.816l13.807-14.282
		c4.245-4.601,8.031-10.623,12.396-15.459l18.171,8.144c2.238,1.413,1.064,0,2.123,2.002c-2.715,4.364-26.548,20.772-33.754,24.545
		c-3.061,1.537-3.889,0.473-6.72-1.297C348.063,372.643,344.403,371.227,343.338,369.816L343.338,369.816z M343.338,369.816
		L343.338,369.816L343.338,369.816z M414.378,355.178l-1.882-2.123c2.002-2.714,5.781-5.661,8.376-8.615
		c6.607-7.436,9.442-10.739,15.104-19.468c2.363-3.54,4.013-7.556,6.494-10.859c2.123,0.473,4.598,3.655,6.367,5.545
		c1.417,1.651,4.965,5.427,5.901,7.199c-1.41,2.831-13.918,12.394-18.763,15.696C433.029,344.679,417.926,354.585,414.378,355.178
		L414.378,355.178z M414.378,355.178L414.378,355.178L414.378,355.178z M399.395,340.899c-2.954-1.298-6.614-4.484-10.506-6.847
		c-3.539-2.122-7.785-4.365-11.092-6.606c0.117-2.126,3.068-7.672,4.252-10.267c1.65-3.42,2.944-7.319,4.002-10.859
		c2.485-7.784,4.495-15.932,4.957-24.544c6.146-0.116,30.569,14.634,35.174,18.293C426.069,307.386,406.122,336.887,399.395,340.899
		L399.395,340.899z M399.395,340.899L399.395,340.899L399.395,340.899z M447.188,229.97c3.892,1.65,15.809,13.094,19.122,16.288
		c3.061,2.948,5.771,6.251,8.609,9.435c3.067,3.544,6.142,5.669,6.375,11.804c0.232,11.917-1.891,20.886-5.906,30.447
		c-2.823,6.727-8.853,17.346-14.035,21.83c-2.13-2.358-3.659-5.189-5.789-8.145c-9.204-12.86-8.496-6.839-5.661-18.403
		c4.364-18.054,4.011-33.637,0.113-51.453C449.43,238.94,447.308,231.621,447.188,229.97L447.188,229.97z M447.188,229.97
		L447.188,229.97L447.188,229.97z M370.598,193.622c9.681,1.532,52.154,17.229,54.992,23.48c3.779,8.152,6.847,21.246,7.904,31.043
		c0.951,7.789,0.712,31.156-2.235,36.818l-19.002-12.745c-8.138-5.192-16.401-7.907-21.119-10.742
		c-3.307-18.523-1.188-15.217-7.558-36.109c-1.531-5.193-4.126-11.211-6.136-15.933
		C376.381,206.836,370.838,195.863,370.598,193.622L370.598,193.622z M370.598,193.622L370.598,193.622L370.598,193.622z
		 M428.071,186.66c3.42,0.941,16.986,13.215,19.941,15.928c2.954,2.955,15.463,15.816,16.527,19.829l-20.301-15.46
		c-3.659-2.476-7.791-3.776-10.033-8.259C432.796,195.979,428.544,188.428,428.071,186.66L428.071,186.66z M428.071,186.66
		L428.071,186.66L428.071,186.66z M408.363,187.132c-2.827-0.59-8.969-3.778-11.803-4.839c-13.454-5.427-23.953-8.497-37.879-12.863
		c-6.142-1.888-9.089-11.804-15.216-18.645c-2.253-2.362-19.835-9.441-23.375-11.095c4.957-2.006,53.222,16.521,63.016,20.889
		c6.494,2.951,6.135,2.951,10.15,7.436C395.855,170.846,407.884,183.828,408.363,187.132L408.363,187.132z M408.363,187.132
		L408.363,187.132L408.363,187.132z M278.08,130.132c2.955,1.534,13.796,2.717,17.702,3.187c9.318,1.297,9.798,0.589,14.874,6.019
		c2.948,3.07,18.052,19.354,18.876,22.539c-5.901-0.354-15.576-3.185-22.307-4.367c-6.37-1.061-17.581-3.657-24.079-3.657
		c0.356,3.774,4.728,13.454,6.266,17.702c2.715,7.67,0.945,6.373,15.224,8.379c13.213,1.77,26.667,4.484,39.647,7.079
		c4.598,0.945,4.252,2.007,6.254,5.549c4.253,7.552,8.024,15.692,11.212,23.956c2.361,6.255,10.146,30.8,8.492,37.406
		c-1.649,0-10.037-3.067-12.032-3.892c-3.902-1.414-13.453-5.782-7.792-9.914c2.715-2.003,1.774,0.12,3.075-2.831
		c-9.209-0.236-25.85,2.831-35.644,4.128c-4.957,0.593-16.993,8.261-22.183,11.568c-2.017,1.18-1.89,0.824-2.362,2.71
		c3.308,2.01,48.032-7.665,57.706-6.367c-1.064,2.946-13.687,6.487-0.239,16.048c2.722,2.002,5.785,3.54,9.322,4.953
		c3.426,1.418,7.791,2.362,10.505,3.663c1.891,11.092-8.137,37.29-12.156,44.958c-7.432,0-17.345-5.55-20.3-10.266
		c-2.82-4.604,1.537-15.457-11.797-19.116c-12.035-3.187-46.498,2.361-52.869,5.901c0.712,2.711-0.232,0.706,3.656,4.365
		c1.773,1.65,2.479,2.358,4.136,3.66c1.297,1.057,7.309,6.366,8.031,7.664c-1.896,1.893-2.01,0.944-3.434,3.427
		c9.441-0.473,30.566-8.145,37.533,0.236c3.892,4.721-3.428,13.33,16.408,17.109c2.354,0.352,7.071,0.825,9.194,1.417
		c-0.354,4.601-23.125,28.085-26.195,28.793c-0.585,0.236-12.98-2.715-15.224-3.066c-10.506-2.007-22.778-2.715-33.866-3.188
		c-9.322-0.477-9.681-0.941-15.696,3.423c-10.385,7.313-13.812,5.782-8.265,16.048c6.376,0.826,46.493-3.066,55.473-0.352
		c-0.717,2.123-6.614,5.189-8.856,6.487c-2.722,1.656-6.494,4.251-9.795,5.668c-3.771,1.651-23.367,1.651-29.501,2.595
		c0.119,2.359,6.134,10.03,7.552,11.804c15.104,1.178,65.73-6.378,82.019-9.444c52.869-9.91,121.779-34.463,146.564-83.432
		c13.813-27.261,12.272-49.919-0.473-77.063c-5.661-11.916-12.978-21.125-20.057-29.62c-6.49-7.79-17.469-17.229-25.847-23.602
		c-8.969-6.961-18.529-13.098-30.097-19.47c-21.474-11.803-45.554-21.245-70.444-27.974c-12.98-3.54-26.202-6.841-40.601-9.202
		l-26.667-4.014c-2.835-0.234-3.307-0.591-3.307,2.478C275.719,122.933,276.317,128.715,278.08,130.132L278.08,130.132z"/>
	<path fill-rule="evenodd" clip-rule="evenodd" fill="#1E4587" d="M231.112,161.406l-5.068-14.75
		c-0.712-0.947-1.185-2.479-2.129-4.014c-0.938-1.654-1.65-3.068-2.481-4.601c-11.679-20.771-31.745-34.106-55.937-40.597
		c-27.844-7.315-65.018,2.241-84.141,22.068c-20.527,21.003-31.744,50.505-21.71,81.19c4.604,14.159,12.628,25.963,21.365,34.106
		c4.948,4.717,9.201,8.381,15.327,11.92c3.548,2.125,14.877,8.496,19.597,8.38c0.592-7.791,0-13.926,0.127-22.189
		c0.113-7.664,0.232-15.929,0-23.484c-34.818-27.141-9.801-79.065,34.57-73.045c39.537,5.542,49.324,51.568,23.242,71.632
		c-2.115,1.653-8.257,6.606-11.213,6.374c-0.464-3.074-0.231-6.258-0.231-9.441c0-1.417-0.113-3.191,0.12-4.488l0.36-3.187
		c0-0.116,0-0.234,0-0.351c-2.482-1.065-34.339-0.948-36.708-0.12c-1.178,2.715-0.585,38.829-0.585,41.42
		c0,7.436-1.064,36.821,0.472,41.425c4.012,1.417,29.855,0.705,36.229,0.354c0.232-4.369-0.825-18.88,0.712-21.479
		c0.938-1.058-0.952,0,1.53-1.058l6.367-1.537c24.665-7.316,1.177-3.892,31.511-41.426l19.116-22.655
		c3.307-3.778,5.662-7.317,9.089-11.686C233.356,176.509,231.473,168.249,231.112,161.406L231.112,161.406z"/>
	<path fill-rule="evenodd" clip-rule="evenodd" fill="#DA2A27" d="M216.948,292.282c-1.763,3.893-16.281,13.45-18.291,17.578
		c1.417,2.362,10.153,5.785,12.747,7.792c0.714,7.551-1.416,23.364,0.474,29.028l25.843,17.706
		c3.307-0.833,24.068-15.463,27.026-17.706v-29.028c1.649-1.185,4.478-2.6,6.487-3.659c1.304-0.705,2.241-1.299,3.427-1.891
		c2.241-1.178,1.89-0.589,3.06-2.242c-2.349-4.012-16.753-13.919-18.403-17.578c3.187-4.484,40.001-19.708,20.529-56.41
		c-4.964-9.325-11.68-17.469-18.76-25.609c-6.021-7.083-15.103-16.287-19.003-25.256c-1.761,1.652-0.937-0.59-1.416,2.95
		c-0.12,0.236,0,3.423,0,4.012v21.478c0,7.908-0.827,21.478,0.24,28.797c14.159,7.668,6.605,22.306-3.067,22.067
		c-5.662-0.12-9.794-4.721-10.035-10.503c-0.464-8.853,4.493-8.613,8.032-12.393v-57.233c-1.896,0.71-1.417,0.71-2.481,2.714
		c-12.037,22.071-55.346,52.517-39.184,83.084c3.899,7.313,9.675,12.742,15.936,17.345
		C211.758,288.503,215.89,290.629,216.948,292.282L216.948,292.282z"/>
	<path fill-rule="evenodd" clip-rule="evenodd" fill="#DA2A27" d="M225.924,146.655l5.07,14.75
		c3.54-1.535,17.233-16.641,21.718-21.007l18.05-18.528c1.896-1.768,1.896-1.296,2.714-4.009
		c-7.552,0.469-17.345,2.593-25.129,3.774c-5.668,0.825-8.383,6.727-14.278,14.515C231.353,139.69,228.758,143.702,225.924,146.655
		L225.924,146.655z"/>
	<g>
		<path fill-rule="evenodd" clip-rule="evenodd" fill="#010101" d="M153.493,354.021c-1.578-0.261-3.059-0.5-4.652-0.765
			c2.827-8.134,5.62-16.168,8.461-24.337c1.538,0.239,3.046,0.486,4.633,0.74c0.973,6.05,1.931,12.043,2.954,18.386
			c0.346-0.621,0.557-0.983,0.754-1.357c2.468-4.653,4.964-9.301,7.39-13.985c0.444-0.871,0.908-1.153,1.847-0.921
			c1.086,0.269,2.208,0.409,3.385,0.606c0,8.606,0,17.127,0,25.723c-1.333-0.205-2.609-0.317-3.822-0.643
			c-0.34-0.084-0.719-0.775-0.733-1.191c-0.058-4.389-0.058-8.778-0.071-13.164c-0.006-0.472-0.006-0.944-0.006-1.776
			c-0.396,0.655-0.635,1.008-0.84,1.389c-2.164,4.075-4.357,8.131-6.451,12.24c-0.465,0.902-0.945,1.129-1.855,0.91
			c-0.958-0.229-1.939-0.353-2.976-0.528c-0.86-5.392-1.721-10.732-2.581-16.07c-0.084-0.018-0.178-0.035-0.268-0.049
			C156.964,344.094,155.265,348.962,153.493,354.021z"/>
		<path fill-rule="evenodd" clip-rule="evenodd" fill="#010101" d="M50.471,294.249c-0.825,2.235-1.629,4.393-2.503,6.756
			c-0.994-1.595-1.967-3.025-2.78-4.549c-0.209-0.388,0.009-1.064,0.155-1.572c0.178-0.681,0.474-1.328,0.756-2.101
			c-3.758-2.652-6.261-6.146-6.529-10.919c-0.169-3.17,0.741-6.054,2.637-8.6c3.876-5.214,10.901-6.902,16.683-4.047
			c5.768,2.855,8.511,9.156,6.804,15.453C64.165,290.318,58.037,295.328,50.471,294.249z M50.415,281.162
			c0.36,0.544,0.557,0.861,0.769,1.167c1.501,2.126,2.989,4.256,1.184,6.949c-0.014,0.034,0.078,0.141,0.113,0.219
			c4.484,0.07,8.256-3.159,8.912-7.637c0.557-3.825-2.08-7.852-5.845-8.923c-4.083-1.16-8.919,1.132-10.583,5.014
			c-1.537,3.613-0.269,8.129,2.891,10.033C48.68,285.784,49.498,283.596,50.415,281.162z"/>
		<path fill-rule="evenodd" clip-rule="evenodd" fill="#010101" d="M146.724,391.058c1.778-8.345,3.521-16.489,5.304-24.834
			c1.424,0.296,2.799,0.528,4.132,0.909c0.332,0.096,0.592,0.659,0.754,1.068c2.059,5.253,4.095,10.521,6.134,15.78
			c0.169,0.42,0.353,0.828,0.804,1.23c1.121-5.214,2.235-10.422,3.385-15.752c1.565,0.328,3.067,0.646,4.709,0.991
			c-1.77,8.295-3.525,16.521-5.309,24.854c-1.424-0.307-2.772-0.524-4.062-0.924c-0.368-0.112-0.691-0.684-0.867-1.114
			c-2.066-5.252-4.097-10.521-6.142-15.787c-0.155-0.412-0.331-0.825-0.656-1.61c-1.213,5.608-2.334,10.834-3.476,16.178
			C149.856,391.717,148.355,391.399,146.724,391.058z"/>
		<path fill-rule="evenodd" clip-rule="evenodd" fill="#010101" d="M81.002,341.725c4.266,1.656,4.216,1.663,4.83,5.996
			c0.712,5.042,1.509,10.073,2.51,15.214c2.264-4.9,4.525-9.794,6.825-14.769c1.488,0.688,2.87,1.321,4.358,2.01
			c-3.54,7.717-7.037,15.317-10.598,23.078c-1.32-0.603-2.609-1.132-3.829-1.795c-0.296-0.162-0.451-0.747-0.522-1.171
			c-0.923-5.958-1.819-11.927-2.721-17.892c-0.021-0.113-0.071-0.223-0.177-0.575c-2.342,5.084-4.59,9.971-6.889,14.948
			c-1.488-0.677-2.842-1.305-4.372-2.002C73.944,357.089,77.449,349.459,81.002,341.725z"/>
		<path fill-rule="evenodd" clip-rule="evenodd" fill="#010101" d="M109.355,340.646c-1.276-0.564-2.468-1.016-3.568-1.607
			c-0.374-0.197-0.698-0.729-0.769-1.157c-0.959-5.669-1.862-11.348-2.785-17.021c-0.078-0.413-0.162-0.818-0.325-1.644
			c-2.341,5.223-4.512,10.083-6.748,15.082c-1.474-0.645-2.863-1.262-4.414-1.938c3.469-7.761,6.896-15.429,10.365-23.199
			c1.029,0.451,1.939,0.944,2.896,1.252c0.982,0.313,1.39,0.892,1.545,1.886c0.839,5.5,1.742,10.989,2.63,16.482
			c0.084,0.511,0.175,1.016,0.336,1.865c2.329-5.211,4.536-10.122,6.792-15.164c1.495,0.667,2.884,1.295,4.393,1.972
			C116.229,325.229,112.803,332.9,109.355,340.646z"/>
		<path fill-rule="evenodd" clip-rule="evenodd" fill="#010101" d="M35.071,303.642c0.189,0.134,0.232,0.161,0.268,0.19
			c2.714,3.208,2.708,3.205,1.347,7.118c-1.608,4.622-3.194,9.247-4.788,13.873c-0.085,0.254-0.155,0.521-0.353,1.184
			c4.541-3.511,8.786-6.79,13.122-10.136c0.971,1.252,1.918,2.472,2.955,3.805c-6.706,5.189-13.362,10.337-20.096,15.548
			c-0.874-1.122-1.777-2.157-2.518-3.286c-0.218-0.332-0.105-0.979,0.043-1.421c1.854-5.433,3.735-10.852,5.599-16.273
			c0.119-0.343,0.19-0.695,0.366-1.364c-4.492,3.469-8.722,6.74-13.016,10.055c-1.001-1.283-1.911-2.472-2.947-3.801
			C21.731,313.965,28.387,308.816,35.071,303.642z"/>
		<path fill-rule="evenodd" clip-rule="evenodd" fill="#010101" d="M145.633,373.906c0.021,7.517-5.747,13.604-12.953,13.661
			c-7.424,0.061-13.439-5.789-13.483-13.104c-0.048-7.591,5.84-13.644,13.258-13.641
			C139.731,360.826,145.598,366.656,145.633,373.906z M140.754,373.955c0.021-4.64-3.655-8.38-8.279-8.433
			c-4.639-0.05-8.412,3.955-8.447,8.976c-0.042,4.59,3.709,8.32,8.349,8.32C137.03,382.818,140.747,378.891,140.754,373.955z"/>
		<path fill-rule="evenodd" clip-rule="evenodd" fill="#010101" d="M103.319,351.223c2.919,1.155,5.774,2.122,8.489,3.384
			c5.634,2.631,7.876,7.327,6.6,13.468c-0.614,2.973-1.854,5.642-4.055,7.777c-2.961,2.863-6.446,3.836-10.408,2.588
			c-3.088-0.974-6.141-2.091-9.399-3.208C97.481,367.207,100.379,359.288,103.319,351.223z M100.688,372.453
			c3.337,0.931,6.503,3.106,9.718,0.346c2.792-2.407,3.956-5.645,3.272-9.265c-0.747-3.936-4.139-4.972-7.46-6.181
			C104.377,362.377,102.579,367.299,100.688,372.453z"/>
		<path fill-rule="evenodd" clip-rule="evenodd" fill="#010101" d="M52.452,329.332c-4.667,5.157-9.217,10.189-13.848,15.314
			c-1.22-1.103-2.39-2.168-3.646-3.303c4.633-5.137,9.209-10.203,13.82-15.315c-1.107-1.008-2.15-1.949-3.314-2.996
			c1.051-1.182,2.073-2.32,3.186-3.568c2.533,2.292,5.128,4.418,7.44,6.808c1.274,1.322,2.976,1.689,4.357,2.677
			c0.769,0.546,1.559,1.057,2.468,1.671c-4.717,7.016-9.406,13.996-14.166,21.097c-1.333-0.896-2.608-1.752-4.005-2.687
			c3.709-5.528,7.375-10.982,11.125-16.577C54.772,331.451,53.672,330.45,52.452,329.332z"/>
		<path fill-rule="evenodd" clip-rule="evenodd" fill="#010101" d="M240.858,403.457c-0.19,0.057-0.282,0.112-0.367,0.103
			c-1.487-0.138-3.358,0.208-4.371-0.561c-0.947-0.72-1.037-2.613-1.411-4.013c-0.232-0.854-0.613-1.185-1.544-1.227
			c-2.729-0.109-5.451-0.328-8.179-0.564c-0.769-0.069-1.199,0.141-1.502,0.874c-0.458,1.136-0.994,2.236-1.559,3.317
			c-0.169,0.314-0.564,0.737-0.846,0.734c-1.439-0.021-2.891-0.166-4.541-0.282c0.374-0.786,0.663-1.407,0.952-2.024
			c3.397-7.178,6.811-14.353,10.175-21.552c0.374-0.782,0.739-1.18,1.678-0.994c1.228,0.24,2.792-0.077,3.625,0.585
			c0.804,0.628,0.867,2.207,1.219,3.375c2.13,7.019,4.252,14.035,6.368,21.058C240.668,402.674,240.759,403.069,240.858,403.457z
			 M226.079,392.595c2.369,0.165,4.499,0.314,6.831,0.476c-0.936-3.032-1.818-5.873-2.77-8.958
			C228.737,387.035,227.447,389.728,226.079,392.595z"/>
		<path fill-rule="evenodd" clip-rule="evenodd" fill="#010101" d="M87.715,330.253c-0.091-0.029-0.148-0.036-0.183-0.064
			c-1.27-0.804-3.117-1.354-3.652-2.507c-0.508-1.117,0.239-2.876,0.592-4.311c0.219-0.875,0.106-1.341-0.698-1.827
			c-2.376-1.445-4.703-2.968-7.009-4.516c-0.613-0.416-1.072-0.462-1.58,0.06c-0.072,0.07-0.148,0.123-0.232,0.177
			c-1.193,0.811-2.419,2.291-3.591,2.253c-1.345-0.046-2.642-1.442-4.341-2.479c0.43-0.235,0.724-0.358,0.987-0.542
			c6.79-4.929,13.578-9.848,20.348-14.808c0.714-0.521,1.151-0.462,1.85-0.015c3.081,2.01,3.13,1.992,2.397,5.542
			c-1.509,7.375-3.06,14.752-4.597,22.127C87.934,329.653,87.813,329.949,87.715,330.253z M87.63,308.077
			c-2.708,1.942-5.112,3.666-7.636,5.481c1.946,1.251,3.779,2.437,5.768,3.716C86.382,314.225,86.967,311.341,87.63,308.077z"/>
		<path fill-rule="evenodd" clip-rule="evenodd" fill="#010101" d="M147.614,326.269c1.593,0.437,3.039,0.843,4.654,1.298
			c-0.521,1.903-1.015,3.736-1.537,5.57c-1.128,3.977-2.186,7.981-3.434,11.931c-1.079,3.419-3.808,5.619-6.952,5.683
			c-3.852,0.077-7.009-1.283-8.934-4.823c-0.917-1.678-0.882-3.507-0.452-5.242c1.479-5.878,3.088-11.729,4.682-17.723
			c1.593,0.437,3.067,0.838,4.717,1.29c-0.67,2.472-1.333,4.903-1.996,7.332c-0.875,3.174-1.819,6.333-2.602,9.527
			c-0.748,3.008,0.896,4.999,3.871,4.876c1.622-0.071,2.644-0.956,3.088-2.443c0.98-3.293,1.911-6.6,2.841-9.9
			C146.247,331.25,146.902,328.85,147.614,326.269z"/>
		<path fill-rule="evenodd" clip-rule="evenodd" fill="#010101" d="M78.527,292.557c1.253,1.336,2.32,2.461,3.462,3.667
			c-0.176,0.184-0.522,0.558-0.875,0.924c-3.906,3.97-7.75,8.003-11.74,11.881c-2.714,2.647-6.303,3.032-9.364,1.312
			c-3.532-1.995-5.662-5.778-4.717-9.279c0.458-1.734,1.601-3.42,2.806-4.787c2.75-3.11,5.712-6.022,8.617-8.998
			c1.022-1.039,2.107-2.023,3.143-3.027c1.031,1.074,2.131,2.22,3.252,3.395c-3.497,3.603-7.15,7.361-10.788,11.119
			c-0.494,0.508-0.994,1.016-1.432,1.565c-1.445,1.802-1.354,3.483,0.24,5.006c1.58,1.51,3.434,1.637,5.028,0.064
			c3.892-3.843,7.692-7.785,11.52-11.705C78.006,293.361,78.238,292.944,78.527,292.557z"/>
		<path fill-rule="evenodd" clip-rule="evenodd" fill="#010101" d="M176.115,371.078c4.654,0.72,9.115,1.41,13.701,2.122
			c-0.24,1.565-0.458,3.039-0.712,4.672c-2.97-0.447-5.88-0.893-8.927-1.347c-0.232,1.448-0.465,2.873-0.719,4.467
			c2.969,0.472,5.874,0.931,8.934,1.417c-0.232,1.537-0.453,3.004-0.698,4.601c-2.99-0.45-5.902-0.898-8.941-1.36
			c-0.331,2.182-0.663,4.347-1.008,6.589c3.046,0.48,5.916,0.928,8.92,1.4c-0.24,1.582-0.473,3.092-0.72,4.686
			c-4.611-0.712-9.117-1.41-13.714-2.123C173.534,387.797,174.803,379.519,176.115,371.078z"/>
		<path fill-rule="evenodd" clip-rule="evenodd" fill="#010101" d="M206.11,378.807c-1.227,0.85-2.467,1.706-3.779,2.623
			c-0.318-0.428-0.559-0.902-0.924-1.213c-0.741-0.621-1.488-1.425-2.355-1.644c-0.712-0.173-1.869,0.163-2.32,0.705
			c-0.324,0.392-0.065,1.683,0.367,2.222c1.707,2.13,3.596,4.11,5.401,6.169c1.798,2.053,2.764,4.379,2.157,7.15
			c-0.959,4.406-5.45,6.628-10.273,5.111c-2.644-0.831-4.478-2.771-5.648-6.057c0.698-0.331,1.396-0.669,2.101-0.994
			c0.684-0.31,1.368-0.606,2.094-0.924c0.444,0.734,0.725,1.552,1.29,2.053c0.811,0.708,1.785,1.529,2.771,1.664
			c0.832,0.108,2.129-0.466,2.602-1.163c0.416-0.6,0.261-1.95-0.148-2.684c-0.686-1.206-1.777-2.183-2.687-3.262
			c-1.191-1.396-2.475-2.728-3.546-4.209c-2.038-2.8-2.066-5.881-0.233-8.095c2.002-2.425,5.43-3.194,8.475-1.914
			C203.254,375.098,204.834,376.6,206.11,378.807z"/>
		<path fill-rule="evenodd" clip-rule="evenodd" fill="#010101" d="M121.419,345.027c-1.551-0.535-3.011-1.043-4.64-1.61
			c2.277-6.48,4.525-12.89,6.833-19.447c-1.396-0.508-2.736-0.994-4.209-1.53c0.536-1.523,1.043-2.968,1.573-4.491
			c4.435,1.555,8.755,3.074,13.241,4.653c-0.521,1.484-1.015,2.919-1.558,4.488c-1.474-0.497-2.87-0.966-4.386-1.478
			C125.988,332.1,123.718,338.516,121.419,345.027z"/>
		<path fill-rule="evenodd" clip-rule="evenodd" fill="#010101" d="M213.112,401.511c-1.643-0.184-3.13-0.349-4.78-0.528
			c0.917-8.42,1.819-16.736,2.743-25.247c1.572,0.169,3.124,0.335,4.795,0.512C214.952,384.691,214.043,393.008,213.112,401.511z"/>
		<path fill-rule="evenodd" clip-rule="evenodd" fill="#010101" d="M65.61,362.321c-1.453-0.861-2.75-1.618-4.153-2.447
			c4.301-7.318,8.561-14.567,12.882-21.907c1.388,0.81,2.715,1.594,4.153,2.432C74.198,347.704,69.939,354.948,65.61,362.321z"/>
		<path fill-rule="evenodd" clip-rule="evenodd" fill="#010101" d="M34.056,302.189c-7.742,3.712-15.293,7.332-22.909,10.985
			c-0.698-1.432-1.347-2.778-2.094-4.33c7.616-3.659,15.216-7.305,22.909-10.999C32.681,299.333,33.351,300.722,34.056,302.189z"/>
	</g>
</g>
</svg>
